<?xml version="1.0" encoding="utf-8"?>
<!-- Generator: Adobe Illustrator 21.1.0, SVG Export Plug-In . SVG Version: 6.00 Build 0)  -->
<svg version="1.1" id="Layer_2" xmlns="http://www.w3.org/2000/svg" xmlns:xlink="http://www.w3.org/1999/xlink" x="0px" y="0px"
	 viewBox="0 0 837 232.9" style="enable-background:new 0 0 837 232.9;" xml:space="preserve">
<style type="text/css">
	.st0{fill:#77787B;}
	.st1{display:none;}
	.st2{fill:#EC1C24;}
	.st3{fill:#CD181E;}
	.st4{fill:#C6203A;}
	.st5{fill:#AD1A27;}
</style>
<g>
	<g>
		<path class="st0" d="M308.9,189.2h-6.7v17.8h-3v-17.8h-6.8v-2.1h16.5V189.2z"/>
		<path class="st0" d="M328.8,207.1h-3v-9.2h-10.6v9.2h-3v-19.9h3v8.6h10.6v-8.6h3V207.1z"/>
		<path class="st0" d="M347.6,207.1h-13.7v-19.9h13.4v2.1h-10.4v6.5h9.4v2.1h-9.4v7.2h10.7V207.1z"/>
		<path class="st0" d="M375.8,187.1l-7.9,19.9h-3.4l-7.7-19.9h3.1l6.4,17.1h0.3l6.4-17.1H375.8z"/>
		<path class="st0" d="M393.4,207.1h-3.1l-2.3-6h-8.5l-2.2,6h-2.9l7.9-19.9h3.4L393.4,207.1z M387.3,199l-3.4-9h-0.3l-3.4,9H387.3z"
			/>
		<path class="st0" d="M409.2,207.1h-12.8v-19.9h3V205h9.8V207.1z"/>
		<path class="st0" d="M427.1,187.1V202c0,3.6-2.6,5.4-7.8,5.4c-1,0-2-0.1-2.8-0.2c-0.8-0.1-1.6-0.4-2.4-0.7
			c-0.8-0.4-1.4-0.9-1.9-1.7c-0.5-0.8-0.7-1.7-0.7-2.8v-14.8h2.9v14.8c0,1.3,0.4,2.2,1.3,2.7c0.9,0.5,2.1,0.7,3.7,0.7
			c1.6,0,2.8-0.2,3.6-0.7c0.8-0.5,1.3-1.4,1.3-2.7v-14.8H427.1z"/>
		<path class="st0" d="M446,207.1h-13.7v-19.9h13.4v2.1h-10.4v6.5h9.4v2.1h-9.4v7.2H446V207.1z"/>
		<path class="st0" d="M473.4,192.5v9.5c0,1.1-0.3,2-0.8,2.8c-0.5,0.8-1.2,1.3-2.1,1.7c-0.9,0.4-1.8,0.6-2.7,0.8
			c-0.9,0.1-1.8,0.2-2.9,0.2c-5.6,0-8.3-1.8-8.3-5.4v-9.4c0-3.8,2.8-5.7,8.3-5.7C470.5,186.8,473.4,188.7,473.4,192.5z M470.5,201.9
			v-9.5c0-2.5-1.8-3.7-5.5-3.7c-0.8,0-1.5,0-2.1,0.1c-0.6,0.1-1.2,0.3-1.7,0.5c-0.6,0.3-1,0.6-1.3,1.1c-0.3,0.5-0.5,1.1-0.5,1.9v9.5
			c0,2.3,1.9,3.4,5.6,3.4C468.6,205.4,470.5,204.2,470.5,201.9z"/>
		<path class="st0" d="M491.6,189.2h-10.7v6.5h9.7v2.1h-9.7v9.2h-3v-19.9h13.7V189.2z"/>
		<path class="st0" d="M517.3,187.1l-7.2,11.8v8.1h-3v-8l-7.2-11.9h3.4l5.3,9.4l5.3-9.4H517.3z"/>
		<path class="st0" d="M536.4,192.5v9.5c0,1.1-0.3,2-0.8,2.8c-0.5,0.8-1.2,1.3-2.1,1.7c-0.9,0.4-1.8,0.6-2.7,0.8
			c-0.9,0.1-1.8,0.2-2.9,0.2c-5.6,0-8.3-1.8-8.3-5.4v-9.4c0-3.8,2.8-5.7,8.3-5.7C533.6,186.8,536.4,188.7,536.4,192.5z M533.5,201.9
			v-9.5c0-2.5-1.8-3.7-5.5-3.7c-0.8,0-1.5,0-2.1,0.1c-0.6,0.1-1.2,0.3-1.7,0.5c-0.6,0.3-1,0.6-1.3,1.1c-0.3,0.5-0.5,1.1-0.5,1.9v9.5
			c0,2.3,1.9,3.4,5.6,3.4C531.6,205.4,533.5,204.2,533.5,201.9z"/>
		<path class="st0" d="M556.5,187.1V202c0,3.6-2.6,5.4-7.8,5.4c-1,0-2-0.1-2.8-0.2c-0.8-0.1-1.6-0.4-2.4-0.7
			c-0.8-0.4-1.4-0.9-1.9-1.7c-0.5-0.8-0.7-1.7-0.7-2.8v-14.8h2.9v14.8c0,1.3,0.4,2.2,1.3,2.7c0.9,0.5,2.1,0.7,3.7,0.7
			c1.6,0,2.8-0.2,3.6-0.7c0.8-0.5,1.3-1.4,1.3-2.7v-14.8H556.5z"/>
		<path class="st0" d="M576.9,207.1h-3.7l-5.7-8.5h-2.9v8.5h-3v-19.9h7c2.5,0,4.3,0.3,5.4,0.8c1.1,0.5,1.6,1.5,1.6,3.1v3.4
			c0,1.2-0.5,2.2-1.5,2.8c-1,0.6-2.2,0.9-3.7,0.9L576.9,207.1z M572.7,194.1v-2.8c0-1.5-1.3-2.2-3.9-2.2h-4.2v7.5h3.9
			c1.4,0,2.5-0.2,3.1-0.5C572.4,195.7,572.7,195.1,572.7,194.1z"/>
		<path class="st0" d="M603.9,192.8v8.8c0,3.6-2.8,5.4-8.3,5.4h-7.9v-19.9h7.9C601.1,187.1,603.9,189,603.9,192.8z M601,201.6v-8.8
			c0-0.8-0.2-1.4-0.5-1.9c-0.3-0.5-0.7-0.9-1.3-1.1c-0.6-0.2-1.1-0.4-1.7-0.5c-0.6-0.1-1.3-0.1-2.1-0.1h-4.9V205h4.8
			C599.1,205,601,203.9,601,201.6z"/>
		<path class="st0" d="M625.4,207.1h-3.1l-2.3-6h-8.5l-2.2,6h-2.9l7.9-19.9h3.4L625.4,207.1z M619.3,199l-3.4-9h-0.3l-3.4,9H619.3z"
			/>
		<path class="st0" d="M640.6,189.2h-6.7v17.8h-3v-17.8h-6.8v-2.1h16.5V189.2z"/>
		<path class="st0" d="M658.4,207.1h-3.1l-2.3-6h-8.5l-2.2,6h-2.9l7.9-19.9h3.4L658.4,207.1z M652.3,199l-3.4-9h-0.3l-3.4,9H652.3z"
			/>
	</g>
	<g>
		<path class="st1" d="M335.5,84.1v51.1c0,1.6-1.5,2.8-3,2.8h-21.1c-0.9,0-1.8-0.2-2.6-0.6c-0.9-0.5-1.6-0.9-2-1.4
			c-0.9-0.9-1.4-2.1-1.6-3.5c-0.2-1.4-0.1-2.6-0.1-3.6V84.1H290v43.8c0,12.2,2.2,21.3,17.2,21.3h34.1c4.9,0,8.8-3.9,8.8-8.8V84.1
			H335.5z"/>
		<rect x="449.1" y="84" width="14.4" height="65"/>
		<path d="M427.4,148.5c-1,0.7-2.1,1-3.1,1.2c-1.1,0.1-1.9,0.2-2.4,0.2c-1.4,0-3-0.3-4.5-0.8c-1.6-0.5-3-1.7-4.3-3.6l-29.7-43.8
			c-0.2-0.4-0.6-0.5-1-0.5c-0.5,0-0.7,0.2-0.8,0.5c-0.2,0.3-0.2,0.7-0.2,1.3l0.1,46.3h-13.9V92.6c0-0.9,0.1-1.9,0.3-3
			c0.2-1,0.7-2,1.3-3c0.7-0.9,1.6-1.7,2.8-2.4c1.2-0.7,3-1,5-1c2.4,0,4.3,0.5,5.6,1.3c1.3,0.9,2.6,2.2,3.7,3.9l28.6,41.9
			c0.5,0.8,0.9,1.2,1.1,1.4c0.2,0.2,0.4,0.3,0.6,0.3c0.5,0,0.7-0.3,0.7-0.5c0-0.3,0-0.7,0-1.2V84.1l0,0h14V140
			c0,2.4-0.5,4.3-1.2,5.6C429.4,146.9,428.5,147.9,427.4,148.5z"/>
		<path d="M609.7,89.1c-1.4-1.6-3.4-2.8-5.8-3.7c-2.4-0.9-5-1.4-7.7-1.4h-36.9v11.1h32.1c1.1,0,2.4,0.1,3.6,0.5
			c1.2,0.3,2.4,1.1,3.3,2.4c0.8,1,1.3,2,1.5,3.1c0.2,1,0.3,2.1,0.3,3.1v4.5h-28.3c-1.7,0-3.6,0.1-5.7,0.5c-2.1,0.4-4.2,1.5-6.2,3.3
			c-2.4,2.1-4,4.6-4.6,7.3c-0.6,2.8-0.9,5.6-0.9,8.5c0,1.2,0.1,2.6,0.1,4.2c0.1,1.6,0.3,3.1,0.7,4.8c0.3,1.6,0.9,3.2,1.7,4.7
			c0.8,1.5,1.8,2.9,3.1,4c1.9,1.6,3.9,2.6,6,2.8c2.1,0.3,4.1,0.4,5.8,0.4h31.1c1.6,0,3.1-0.2,4.8-0.5c1.6-0.3,3-1,4.2-2.2
			c1.2-1.2,1.9-2.6,2.2-4.2c0.3-1.6,0.5-3,0.5-4.2v-33.8c0-3.7-0.5-6.8-1.4-9.4C612.3,92.4,611.1,90.5,609.7,89.1z M600.1,134.6
			c0,0.5-0.1,1-0.1,1.4s-0.3,0.9-0.9,1.3c-0.5,0.4-1,0.6-1.6,0.7c-0.6,0.1-1.1,0.1-1.5,0.1h-20c-0.9,0-1.8-0.2-2.6-0.6
			c-0.9-0.5-1.6-0.9-2-1.4c-0.9-0.9-1.4-2.1-1.6-3.5c-0.2-1.4-0.3-2.7-0.3-3.7c0-2.4,0.2-4.1,0.6-5c0.4-1,0.7-1.6,1-2
			c0.8-1,1.8-1.7,2.9-1.9c1.1-0.2,2-0.3,2.4-0.3h23.9V134.6z"/>
		<path d="M535.3,95c-0.9-2.6-2-4.6-3.4-6c-1.4-1.6-3.4-2.8-5.8-3.7c-2.4-0.9-5-1.4-7.7-1.4h-36.9l0,0v65.2h43.6
			c1.6,0,3.1-0.2,4.8-0.5c1.6-0.3,3-1,4.2-2.2c1.2-1.2,1.9-2.6,2.2-4.2c0.3-1.6,0.5-3,0.5-4.2v-33.8
			C536.7,100.8,536.3,97.6,535.3,95z M495.9,138.1V95.2h17.7c1.1,0,2.4,0.1,3.6,0.5c1.2,0.3,2.4,1.1,3.3,2.4c0.8,1,1.3,2,1.5,3.1
			c0.2,1,0.3,2.1,0.3,3.1v30.4c0,0.5-0.1,1-0.1,1.4c-0.1,0.5-0.3,0.9-0.9,1.3c-0.5,0.4-1,0.6-1.6,0.7c-0.6,0.1-1.1,0.1-1.5,0.1
			H495.9z"/>
		<polygon points="626.8,95.1 651.3,95.1 651.3,149.1 665.6,149.1 665.6,95.1 690,95.1 690,84 626.8,84 		"/>
		<path d="M757.7,95c-0.9-2.6-2-4.6-3.4-6c-1.4-1.6-3.4-2.8-5.8-3.7c-2.4-0.9-5-1.4-7.7-1.4h-37v11.1h32.1c1.1,0,2.4,0.1,3.6,0.5
			c1.2,0.3,2.4,1.1,3.3,2.4c0.8,1,1.3,2,1.5,3.1c0.2,1,0.3,2.1,0.3,3.1v4.5h-28.3c-1.7,0-3.6,0.1-5.7,0.5c-2.1,0.4-4.2,1.5-6.2,3.3
			c-2.4,2.1-4,4.6-4.6,7.3c-0.6,2.8-0.9,5.6-0.9,8.5c0,1.2,0.1,2.6,0.1,4.2c0.1,1.6,0.3,3.1,0.7,4.8c0.3,1.6,0.9,3.2,1.7,4.7
			c0.8,1.5,1.8,2.9,3.1,4c1.9,1.6,3.9,2.6,6,2.8c2.1,0.3,4.1,0.4,5.8,0.4h31.1c1.6,0,3.1-0.2,4.8-0.5c1.6-0.3,3-1,4.2-2.2
			c1.2-1.2,1.9-2.6,2.2-4.2c0.3-1.6,0.5-3,0.5-4.2v-33.8C759.1,100.8,758.6,97.6,757.7,95z M744.6,134.6c0,0.5-0.1,1-0.1,1.4
			c-0.1,0.5-0.3,0.9-0.9,1.3c-0.5,0.4-1,0.6-1.6,0.7c-0.6,0.1-1.1,0.1-1.5,0.1h-20c-0.9,0-1.8-0.2-2.6-0.6c-0.9-0.5-1.5-0.9-2-1.4
			c-0.9-0.9-1.4-2.1-1.6-3.5c-0.2-1.4-0.3-2.7-0.3-3.7c0-2.4,0.2-4.1,0.6-5c0.4-1,0.7-1.6,1-2c0.8-1,1.8-1.7,2.9-1.9
			c1.1-0.2,2-0.3,2.4-0.3h23.9V134.6z"/>
		<path d="M335.5,84v51.1c0,1.6-1.5,2.8-3,2.8h-21.1c-0.9,0-1.8-0.2-2.6-0.6c-0.9-0.5-1.6-0.9-2-1.4c-0.9-0.9-1.4-2.1-1.6-3.5
			c-0.2-1.4-0.1-2.6-0.1-3.6V84h-4.8c-5.6,0-10.2,4.6-10.2,13.2v30.7c0,12.2,2.2,21.3,17.2,21.3h34.1c4.9,0,8.8-3.9,8.8-8.8V84
			H335.5z"/>
	</g>
	<g>
		<g>
			<polygon class="st2" points="53.2,94.2 53.2,139 27.5,116.6 			"/>
			<polygon class="st2" points="87.5,56 55.9,87.7 53.5,53.7 			"/>
			<polygon class="st2" points="87.5,177.2 53.5,179.5 55.9,145.5 			"/>
			<polygon class="st2" points="138.8,179.9 116.4,205.6 94,179.9 			"/>
			<polygon class="st2" points="179.4,179.5 145.3,177.2 177,145.5 			"/>
			<polygon class="st2" points="205.4,116.6 179.7,139 179.7,94.2 			"/>
			<polygon class="st2" points="179.4,53.7 177,87.7 145.3,56 			"/>
			<polygon class="st2" points="138.8,53.3 94,53.3 116.4,27.6 			"/>
		</g>
		<g>
			<polygon class="st3" points="52.9,90.4 25.6,114.2 9.1,72.3 50.4,54.3 			"/>
			<polygon class="st3" points="52.9,142.9 50.4,179 9.1,161 25.6,119.1 			"/>
			<polygon class="st3" points="113.8,207.2 71.8,223.7 53.9,182.4 90,180 			"/>
			<polygon class="st3" points="178.5,182.4 160.6,223.7 118.7,207.2 142.4,180 			"/>
			<polygon class="st3" points="223.3,161 182,179 179.5,142.9 206.8,119.1 			"/>
			<polygon class="st3" points="223.8,72.1 206.8,114.2 179.5,90.4 182,54.3 			"/>
			<polygon class="st3" points="178.5,50.8 142.4,53.3 118.7,26 160.6,9.5 			"/>
			<polygon class="st3" points="113.8,26 90,53.3 53.9,50.8 71.8,9.5 			"/>
		</g>
		<g>
			<path class="st4" d="M49.4,51.7l-39.1,17c0.7-1.6,1.4-3.1,2.2-4.6C18,53.3,24.9,43.6,33,35.3L49.4,51.7z"/>
			<path class="st4" d="M23.1,118.1L7.2,158.4c-3.5-10-5.8-20.2-6.7-30.4c-0.3-3.3-0.5-6.6-0.5-9.8H23.1z"/>
			<path class="st4" d="M157.6,225.6c-12.5,4.7-25.9,7.3-39.7,7.4V210L157.6,225.6z"/>
			<path class="st4" d="M222.6,164.6c-0.7,1.6-1.4,3.1-2.2,4.6c-5.5,10.8-12.4,20.4-20.5,28.8l-16.4-16.4L222.6,164.6z"/>
			<path class="st4" d="M232.9,115.2h-23.1l16-39.8c3.4,9.8,5.6,19.8,6.5,29.9C232.7,108.6,232.8,111.9,232.9,115.2z"/>
			<path class="st4" d="M115,0.2v23.1L75.2,7.6C87.7,2.9,101.1,0.3,115,0.2z"/>
			<path class="st4" d="M68.5,222.8c-1.6-0.7-3.1-1.4-4.6-2.2c-10.8-5.5-20.4-12.4-28.8-20.5l16.4-16.4L68.5,222.8z"/>
			<path class="st4" d="M181.4,49.6l-17-39.1c1.6,0.7,3.1,1.4,4.6,2.2c10.8,5.5,20.4,12.4,28.8,20.5L181.4,49.6z"/>
		</g>
		<g>
			<path class="st5" d="M23.1,115.2H0c0.2-13.6,2.7-27.1,7.5-39.7L23.1,115.2z"/>
			<path class="st5" d="M115,210v23.1c-13.4-0.2-27-2.6-40.3-7.3L115,210z"/>
			<path class="st5" d="M197.8,200c-9.7,9.5-21.1,17.2-33.4,22.8l17.1-39.2L197.8,200z"/>
			<path class="st5" d="M33.1,198c-9.5-9.7-17.2-21.1-22.8-33.4l39.2,17.1L33.1,198z"/>
			<path class="st5" d="M232.9,118.1c-0.2,13.6-2.7,27-7.5,39.7l-15.6-39.7H232.9z"/>
			<path class="st5" d="M158.1,7.4l-40.2,15.9V0.2C131.3,0.3,144.8,2.8,158.1,7.4z"/>
			<path class="st5" d="M68.5,10.4l-17,39.2L35.1,33.2C44.8,23.7,56.2,16,68.5,10.4z"/>
			<path class="st5" d="M222.7,68.7l-39.2-17l16.4-16.4C209.4,45,217.1,56.3,222.7,68.7z"/>
		</g>
	</g>
</g>
</svg>
