<?xml version="1.0" encoding="utf-8"?>
<!-- Generator: Adobe Illustrator 21.1.0, SVG Export Plug-In . SVG Version: 6.00 Build 0)  -->
<svg version="1.1" id="Layer_2" xmlns="http://www.w3.org/2000/svg" xmlns:xlink="http://www.w3.org/1999/xlink" x="0px" y="0px"
	 viewBox="-27.4 152.8 837 232.9" height="232.9" width="837" enable-background="new -27.4 152.8 837 232.9" xml:space="preserve">
<g>
	<g>
		<polygon points="412.3,262.7 381.3,262.7 381.3,236.7 366.9,236.7 366.9,301.8 381.3,301.8 381.3,273.8 412.3,273.8 412.3,301.7 
			426.7,301.7 426.7,236.7 412.3,236.7 		"/>
		<path d="M503.7,237.4c-1-0.7-2.1-1-3.1-1.2c-1.1-0.1-1.9-0.2-2.4-0.2c-1.4,0-3,0.3-4.5,0.8c-1.6,0.5-3,1.7-4.3,3.6l-29.7,43.8
			c-0.2,0.4-0.6,0.5-1,0.5c-0.5,0-0.7-0.2-0.8-0.5c-0.2-0.3-0.2-0.7-0.2-1.3l0.1-46.3h-13.9v56.6c0,0.9,0.1,1.9,0.3,3
			c0.2,1,0.7,2,1.3,3c0.7,0.9,1.6,1.7,2.8,2.4c1.2,0.7,3,1,5,1c2.4,0,4.3-0.5,5.6-1.3c1.3-0.9,2.6-2.2,3.7-3.9l28.6-41.9
			c0.5-0.8,0.9-1.2,1.1-1.4c0.2-0.2,0.4-0.3,0.6-0.3c0.5,0,0.7,0.3,0.7,0.5c0,0.3,0,0.7,0,1.2v46.3l-0.5,0.1h14.4V246
			c0-2.4-0.5-4.3-1.2-5.6C505.7,239,504.8,238,503.7,237.4z"/>
		<path d="M567.7,242.3c-0.7-1.6-1.7-3.1-3.1-4.4c-1.4-1.3-3.9-2-7.3-2c-3.3,0-5.8,0.6-7.2,1.8c-1.5,1.2-2.6,2.8-3.3,4.5l-20.3,48.4
			h-5.9v11.1h73.3v-11.1h-5.8L567.7,242.3z M540.4,290.7l15.5-40.4c0.1-0.4,0.3-0.8,0.6-1.2c0.3-0.3,0.5-0.5,0.7-0.5
			c0.4,0,0.7,0.2,0.8,0.6c0.1,0.4,0.3,0.8,0.5,1.1l15.6,40.4H540.4z"/>
		<path d="M660.3,241.7c-1.4-1.6-3.4-2.8-5.8-3.7c-2.4-0.9-5-1.4-7.7-1.4h-36.9v11.1h32.1c1.1,0,2.4,0.1,3.6,0.5
			c1.2,0.3,2.4,1.1,3.3,2.4c0.8,1,1.3,2,1.5,3.1c0.2,1,0.3,2.1,0.3,3.1v4.5h-28.3c-1.7,0-3.6,0.1-5.7,0.5c-2.1,0.4-4.2,1.5-6.2,3.3
			c-2.4,2.1-4,4.6-4.6,7.3c-0.6,2.8-0.9,5.6-0.9,8.5c0,1.2,0.1,2.6,0.1,4.2c0.1,1.6,0.3,3.1,0.7,4.8c0.3,1.6,0.9,3.2,1.7,4.7
			c0.8,1.5,1.8,2.9,3.1,4c1.9,1.6,3.9,2.6,6,2.8c2.1,0.3,4.1,0.4,5.8,0.4h31.1c1.6,0,3.1-0.2,4.8-0.5c1.6-0.3,3-1,4.2-2.2
			c1.2-1.2,1.9-2.6,2.2-4.2c0.3-1.6,0.5-3,0.5-4.2V257c0-3.7-0.5-6.8-1.4-9.4C662.8,245,661.6,243.1,660.3,241.7z M650.6,287.2
			c0,0.5-0.1,1-0.1,1.4c-0.1,0.5-0.3,0.9-0.9,1.3c-0.5,0.4-1,0.6-1.6,0.7c-0.6,0.1-1.1,0.1-1.5,0.1h-20c-0.9,0-1.8-0.2-2.6-0.6
			c-0.9-0.5-1.6-0.9-2-1.4c-0.9-0.9-1.4-2.1-1.6-3.5c-0.2-1.4-0.3-2.7-0.3-3.7c0-2.4,0.2-4.1,0.6-5c0.4-1,0.7-1.6,1-2
			c0.8-1,1.8-1.7,2.9-1.9c1.1-0.2,2-0.3,2.4-0.3h23.9V287.2z"/>
		<polygon points="677.4,247.7 701.8,247.7 701.8,301.8 716.1,301.8 716.1,247.7 740.6,247.7 740.6,236.7 677.4,236.7 		"/>
		<path d="M808.2,247.7c-0.9-2.6-2-4.6-3.4-6c-1.4-1.6-3.4-2.8-5.8-3.7c-2.4-0.9-5-1.4-7.7-1.4h-37v11.1h32.1c1.1,0,2.4,0.1,3.6,0.5
			c1.2,0.3,2.4,1.1,3.3,2.4c0.8,1,1.3,2,1.5,3.1c0.2,1,0.3,2.1,0.3,3.1v4.5h-28.3c-1.7,0-3.6,0.1-5.7,0.5c-2.1,0.4-4.2,1.5-6.2,3.3
			c-2.4,2.1-4,4.6-4.6,7.3c-0.6,2.8-0.9,5.6-0.9,8.5c0,1.2,0.1,2.6,0.1,4.2c0.1,1.6,0.3,3.1,0.7,4.8c0.3,1.6,0.9,3.2,1.7,4.7
			c0.8,1.5,1.8,2.9,3.1,4c1.9,1.6,3.9,2.6,6,2.8c2.1,0.3,4.1,0.4,5.8,0.4H798c1.6,0,3.1-0.2,4.8-0.5c1.6-0.3,3-1,4.2-2.2
			c1.2-1.2,1.9-2.6,2.2-4.2c0.3-1.6,0.5-3,0.5-4.2V257C809.6,253.4,809.2,250.2,808.2,247.7z M795.2,287.2c0,0.5-0.1,1-0.1,1.4
			c-0.1,0.5-0.3,0.9-0.9,1.3c-0.5,0.4-1,0.6-1.6,0.7c-0.6,0.1-1.1,0.1-1.5,0.1h-20c-0.9,0-1.8-0.2-2.6-0.6c-0.9-0.5-1.5-0.9-2-1.4
			c-0.9-0.9-1.4-2.1-1.6-3.5c-0.2-1.4-0.3-2.7-0.3-3.7c0-2.4,0.2-4.1,0.6-5c0.4-1,0.7-1.6,1-2c0.8-1,1.8-1.7,2.9-1.9
			c1.1-0.2,2-0.3,2.4-0.3h23.9V287.2z"/>
		<path d="M346.7,242.7c-1.7-1.6-3.7-2.8-5.8-3.7c-2.2-0.9-4.4-1.6-6.8-2s-4.7-0.7-7.1-0.8c-2.4-0.1-4.5-0.2-6.5-0.2
			c-2.1,0-4.3,0.1-6.6,0.2c-2.3,0.1-4.6,0.4-6.8,0.8c-2.2,0.4-4.5,1.1-6.6,2c-2.2,0.9-4.1,2.2-6,3.7c-2.7,2.4-4.7,5.2-5.8,8.5
			c-1.1,3.3-1.8,7.1-2,11.5H277v-26h-14.4v52.4v4.1c0,0.9,0.1,1.9,0.3,3c0.2,1,0.7,2,1.3,3c0.7,0.9,1.6,1.7,2.8,2.4
			c1.2,0.7,2.9,1,5,1h4.9v-28.7h9.8c-0.2,5.2,0.5,9.5,2,13.1c1.4,3.6,3.4,6.5,5.8,8.6c1.8,1.6,3.8,3,6,3.9c2.2,0.9,4.4,1.6,6.6,2.1
			c2.2,0.5,4.5,0.7,6.8,0.9c2.3,0.1,4.5,0.2,6.6,0.2c2,0,4.1-0.1,6.4-0.2c2.4-0.1,4.7-0.4,7.1-0.9c2.4-0.5,4.7-1.1,6.8-2.1
			c2.2-0.9,4.1-2.2,5.8-3.9c2.6-2.6,4.7-6.1,6-10.8c1.4-4.7,2.1-10,2.1-16.1c-0.1-6.7-0.9-12.2-2.4-16.4
			C350.9,248,349,244.8,346.7,242.7z M339.5,276.2c-0.3,2-0.6,3.6-1,4.9c-0.4,1.3-0.8,2.4-1.2,3.1c-0.4,0.7-0.8,1.3-1.1,1.7
			c-1,1.3-2.2,2.4-3.5,3.1s-2.8,1.3-4.1,1.6c-1.4,0.4-2.8,0.6-4.3,0.7c-1.4,0.1-2.8,0.1-3.9,0.1c-1.2,0-2.6-0.1-3.9-0.1
			c-1.4-0.1-2.8-0.3-4.2-0.7c-1.4-0.4-2.8-0.9-4.1-1.6c-1.3-0.7-2.5-1.8-3.5-3.1c-1.6-2.1-2.7-4.7-3.1-7.7c-0.4-3-0.6-5.8-0.6-8.3
			c0-2.9,0.1-5.3,0.4-7.3c0.3-2,0.5-3.7,0.9-5.1c0.3-1.4,0.7-2.5,1.1-3.3c0.4-0.8,0.9-1.4,1.2-2c1-1.3,2.2-2.3,3.5-3
			c1.4-0.7,2.8-1.2,4.3-1.5c1.4-0.3,2.9-0.5,4.3-0.6c1.4-0.1,2.6-0.1,3.7-0.1c1,0,2.3,0.1,3.7,0.1c1.4,0.1,2.8,0.3,4.3,0.6
			c1.5,0.3,2.9,0.9,4.3,1.5c1.4,0.7,2.6,1.7,3.5,3c0.3,0.3,0.6,0.9,1,1.6c0.4,0.7,0.8,1.8,1.2,3c0.4,1.2,0.7,2.9,1,4.9
			c0.3,2,0.5,4.4,0.5,7.2C340,271.8,339.8,274.2,339.5,276.2z"/>
	</g>
	<g>
		<g>
			<polygon fill="#ED1C24" points="25.8,246.8 25.8,291.6 0.1,269.2 			"/>
			<polygon fill="#ED1C24" points="60.2,208.7 28.5,240.3 26.2,206.3 			"/>
			<polygon fill="#ED1C24" points="60.2,329.8 26.2,332.2 28.5,298.1 			"/>
			<polygon fill="#ED1C24" points="111.5,332.5 89.1,358.2 66.7,332.5 			"/>
			<polygon fill="#ED1C24" points="152,332.2 118,329.8 149.7,298.1 			"/>
			<polygon fill="#ED1C24" points="178.1,269.2 152.4,291.6 152.4,246.8 			"/>
			<polygon fill="#ED1C24" points="152,206.3 149.7,240.3 118,208.7 			"/>
			<polygon fill="#ED1C24" points="111.5,206 66.7,206 89.1,180.3 			"/>
		</g>
		<g>
			<polygon fill="#CE181E" points="25.5,243 -1.8,266.8 -18.3,224.9 23,206.9 			"/>
			<polygon fill="#CE181E" points="25.5,295.5 23,331.6 -18.3,313.6 -1.8,271.7 			"/>
			<polygon fill="#CE181E" points="86.4,359.9 44.5,376.3 26.5,335.1 62.6,332.6 			"/>
			<polygon fill="#CE181E" points="151.2,335.1 133.2,376.3 91.3,359.9 115.1,332.6 			"/>
			<polygon fill="#CE181E" points="195.9,313.6 154.7,331.6 152.2,295.5 179.5,271.7 			"/>
			<polygon fill="#CE181E" points="196.4,224.7 179.5,266.8 152.2,243 154.7,206.9 			"/>
			<polygon fill="#CE181E" points="151.2,203.5 115.1,205.9 91.3,178.7 133.2,162.1 			"/>
			<polygon fill="#CE181E" points="86.4,178.7 62.6,205.9 26.5,203.5 44.5,162.1 			"/>
		</g>
		<g>
			<path fill="#C71F3A" d="M22.1,204.3l-39.1,17c0.7-1.6,1.4-3.1,2.2-4.6c5.5-10.8,12.4-20.4,20.5-28.8L22.1,204.3z"/>
			<path fill="#C71F3A" d="M-4.2,270.7L-20.1,311c-3.5-10-5.8-20.2-6.7-30.4c-0.3-3.3-0.5-6.6-0.5-9.8H-4.2z"/>
			<path fill="#C71F3A" d="M130.3,378.2c-12.5,4.7-25.9,7.3-39.7,7.4v-23.1L130.3,378.2z"/>
			<path fill="#C71F3A" d="M195.2,317.2c-0.7,1.6-1.4,3.1-2.2,4.6c-5.5,10.8-12.4,20.4-20.5,28.8l-16.4-16.4L195.2,317.2z"/>
			<path fill="#C71F3A" d="M205.5,267.8h-23.1l16-39.8c3.4,9.8,5.6,19.8,6.5,29.9C205.3,261.2,205.5,264.5,205.5,267.8z"/>
			<path fill="#C71F3A" d="M87.6,152.8v23.1l-39.8-15.7C60.4,155.5,73.8,153,87.6,152.8z"/>
			<path fill="#C71F3A" d="M41.2,375.4c-1.6-0.7-3.1-1.4-4.6-2.2c-10.8-5.5-20.4-12.4-28.8-20.5l16.4-16.4L41.2,375.4z"/>
			<path fill="#C71F3A" d="M154.1,202.2l-17-39.1c1.6,0.7,3.1,1.4,4.6,2.2c10.8,5.5,20.4,12.4,28.8,20.5L154.1,202.2z"/>
		</g>
		<g>
			<path fill="#AD1A27" d="M-4.2,267.8h-23.1c0.2-13.6,2.7-27.1,7.5-39.7L-4.2,267.8z"/>
			<path fill="#AD1A27" d="M87.6,362.6v23.1c-13.4-0.2-27-2.6-40.3-7.3L87.6,362.6z"/>
			<path fill="#AD1A27" d="M170.4,352.7c-9.7,9.5-21.1,17.2-33.4,22.8l17.1-39.2L170.4,352.7z"/>
			<path fill="#AD1A27" d="M5.7,350.6c-9.5-9.7-17.2-21.1-22.8-33.4l39.2,17.1L5.7,350.6z"/>
			<path fill="#AD1A27" d="M205.5,270.7c-0.2,13.6-2.7,27-7.5,39.7l-15.6-39.7H205.5z"/>
			<path fill="#AD1A27" d="M130.8,160.1l-40.2,15.9v-23.1C104,153,117.5,155.4,130.8,160.1z"/>
			<path fill="#AD1A27" d="M41.2,163l-17,39.2L7.7,185.8C17.5,176.3,28.8,168.6,41.2,163z"/>
			<path fill="#AD1A27" d="M195.4,221.3l-39.2-17l16.4-16.4C182.1,197.6,189.8,208.9,195.4,221.3z"/>
		</g>
	</g>
	<g>
		<path fill="#77787B" d="M281.5,364.4h-2.8v-5h-13.6v-19.7h2.9v17.7h10.5v-17.7h2.9V364.4z"/>
		<path fill="#77787B" d="M300.2,359.4h-13.6v-19.7h13.2v2.1h-10.3v6.4h9.3v2.1h-9.3v7.1h10.6V359.4z"/>
		<path fill="#77787B" d="M320.6,359.4h-2.9v-9.1h-10.5v9.1h-2.9v-19.7h2.9v8.5h10.5v-8.5h2.9V359.4z"/>
		<path fill="#77787B" d="M342.1,359.4h-2.9v-9.1h-10.5v9.1h-2.9v-19.7h2.9v8.5h10.5v-8.5h2.9V359.4z"/>
		<path fill="#77787B" d="M363.3,345v9.4c0,1.1-0.3,2-0.8,2.7c-0.5,0.8-1.2,1.3-2.1,1.7c-0.9,0.4-1.8,0.6-2.6,0.7
			c-0.9,0.1-1.8,0.2-2.8,0.2c-5.5,0-8.3-1.8-8.3-5.3V345c0-3.8,2.8-5.7,8.3-5.7C360.5,339.4,363.3,341.2,363.3,345z M360.4,354.3
			v-9.4c0-2.4-1.8-3.6-5.5-3.6c-0.8,0-1.4,0-2,0.1c-0.6,0.1-1.2,0.3-1.7,0.5c-0.5,0.3-1,0.6-1.3,1.1c-0.3,0.5-0.5,1.1-0.5,1.9v9.4
			c0,2.3,1.8,3.4,5.5,3.4C358.6,357.7,360.4,356.6,360.4,354.3z"/>
		<path fill="#77787B" d="M381.1,359.1c-1.8,0.4-3.6,0.6-5.5,0.6c-5.5,0-8.3-1.8-8.3-5.3V345c0-3.8,2.8-5.7,8.3-5.7
			c1.8,0,3.6,0.2,5.4,0.6v2.2c-1.9-0.5-3.7-0.7-5.3-0.7c-0.8,0-1.4,0-2,0.1c-0.6,0.1-1.2,0.3-1.7,0.5c-0.6,0.2-1,0.6-1.3,1.1
			c-0.3,0.5-0.5,1.1-0.5,1.9v9.2c0,2.3,1.9,3.4,5.7,3.4c1.6,0,3.4-0.2,5.3-0.7V359.1z"/>
		<path fill="#77787B" d="M399.5,341.7h-6.7v17.7h-3v-17.7h-6.7v-2.1h16.3V341.7z"/>
		<path fill="#77787B" d="M402.8,339.7h2.9v8.5h2.9c1,0,1.8,0,2.5,0.1c0.7,0.1,1.4,0.2,2,0.3c0.7,0.2,1.2,0.4,1.6,0.7
			c0.4,0.3,0.7,0.7,1,1.2c0.2,0.5,0.4,1.1,0.4,1.8v2.9c0,2.9-2.3,4.3-7,4.3h-6.4V339.7z M413.3,355v-2.5c0-1-0.3-1.6-0.9-1.9
			c-0.6-0.3-1.7-0.5-3.3-0.5h-3.4v7.2h3.3c0.5,0,1,0,1.3,0c0.4,0,0.8-0.1,1.3-0.3c0.5-0.1,0.9-0.4,1.2-0.7
			C413.2,356,413.3,355.5,413.3,355z"/>
		<path fill="#77787B" d="M441.3,352.2v3.3c0,1.4-0.5,2.5-1.6,3c-1.1,0.6-2.9,0.9-5.3,0.9h-7.3v-19.7h7c1.7,0,3,0.2,4,0.5
			c1,0.3,1.6,0.8,1.9,1.3c0.3,0.5,0.4,1.2,0.4,1.9v2.6c0,0.8-0.2,1.4-0.7,1.9c-0.5,0.4-1.1,0.7-2,0.9v0.1c1.1,0.2,1.9,0.5,2.6,1.1
			C441,350.6,441.3,351.3,441.3,352.2z M437.7,346v-2.3c0-0.8-0.3-1.3-0.8-1.6c-0.5-0.3-1.5-0.5-2.7-0.5H430v6.7h4.2
			c1.3,0,2.1-0.2,2.7-0.6C437.4,347.4,437.7,346.8,437.7,346z M438.4,355.4v-3c0-0.5-0.1-0.9-0.3-1.3c-0.2-0.3-0.5-0.5-1-0.7
			c-0.5-0.1-0.9-0.2-1.2-0.2c-0.4,0-0.9,0-1.5,0H430v7.2h4.3c1.5,0,2.5-0.2,3.1-0.5C438.1,356.6,438.4,356.1,438.4,355.4z"/>
		<path fill="#77787B" d="M462.5,359.4h-3.1l-2.2-6h-8.4l-2.2,6h-2.9l7.8-19.7h3.4L462.5,359.4z M456.5,351.4l-3.3-8.9h-0.3
			l-3.3,8.9H456.5z"/>
		<path fill="#77787B" d="M488.7,359.4h-23.1v-19.7h2.9v17.7h7.1v-17.7h2.9v17.7h7.1v-17.7h2.9V359.4z"/>
		<path fill="#77787B" d="M497.3,359.4h-3.6v-19.7h2.7V356l10.6-16.3h3.6v19.7H508v-16.6L497.3,359.4z"/>
		<path fill="#77787B" d="M531.3,359.4h-3.4l-5.6-8l-5.6,8h-3.4l7.3-10.1l-7-9.7h3.4l5.3,7.6l5.3-7.6h3.4l-7,9.7L531.3,359.4z"/>
		<path fill="#77787B" d="M543.4,339.7h12.3v17.5h1.9v7.3h-2.6v-5h-13.5v5h-2.6v-7.3h1.7c0.9-1.4,1.6-3.1,2-5.3
			c0.4-2.1,0.6-5.1,0.6-9V339.7z M552.9,342h-6.7v1.4c0,2.9-0.2,5.6-0.7,8.1c-0.5,2.5-1,4.4-1.7,5.7h9.1V342z"/>
		<path fill="#77787B" d="M578.2,359.4h-3.1l-2.2-6h-8.4l-2.2,6h-2.9l7.8-19.7h3.4L578.2,359.4z M572.1,351.4l-3.3-8.9h-0.3
			l-3.3,8.9H572.1z"/>
		<path fill="#77787B" d="M597.5,359.4h-2.9v-9.1h-10.5v9.1h-2.9v-19.7h2.9v8.5h10.5v-8.5h2.9V359.4z"/>
		<path fill="#77787B" d="M619,359.4h-2.9v-9.1h-10.5v9.1h-2.9v-19.7h2.9v8.5h10.5v-8.5h2.9V359.4z"/>
		<path fill="#77787B" d="M624.1,339.7h2.9v8.5h2.9c1,0,1.8,0,2.5,0.1c0.7,0.1,1.4,0.2,2,0.3c0.7,0.2,1.2,0.4,1.6,0.7
			c0.4,0.3,0.7,0.7,1,1.2c0.2,0.5,0.4,1.1,0.4,1.8v2.9c0,2.9-2.3,4.3-7,4.3h-6.4V339.7z M634.6,355v-2.5c0-1-0.3-1.6-0.9-1.9
			c-0.6-0.3-1.7-0.5-3.3-0.5H627v7.2h3.3c0.5,0,1,0,1.3,0c0.4,0,0.8-0.1,1.3-0.3c0.5-0.1,0.9-0.4,1.2-0.7
			C634.5,356,634.6,355.5,634.6,355z M643.5,359.4h-2.9v-19.7h2.9V359.4z"/>
		<path fill="#77787B" d="M664.2,359.4h-3.4l-5.6-8l-5.6,8h-3.4l7.3-10.1l-7-9.7h3.4l5.3,7.6l5.3-7.6h3.4l-7,9.7L664.2,359.4z"/>
	</g>
</g>
</svg>
