<?xml version="1.0" encoding="utf-8"?>
<!-- Generator: Adobe Illustrator 22.1.0, SVG Export Plug-In . SVG Version: 6.00 Build 0)  -->
<svg version="1.1" id="Layer_2_1_" xmlns="http://www.w3.org/2000/svg" xmlns:xlink="http://www.w3.org/1999/xlink" x="0px" y="0px"
	 viewBox="0 0 547.1 232.9" style="enable-background:new 0 0 547.1 232.9;" xml:space="preserve">
<style type="text/css">
	.st0{display:none;fill:#FFFFFF;}
	.st1{fill:#FFFFFF;}
</style>
<g>
	<path class="st0" d="M45.7,84v51.1c0,1.6-1.5,2.8-3,2.8H21.6c-0.9,0-1.8-0.2-2.6-0.6c-0.9-0.5-1.6-0.9-2-1.4
		c-0.9-0.9-1.4-2.1-1.6-3.5s-0.1-2.6-0.1-3.6V84H0.2v43.8c0,12.2,2.2,21.3,17.2,21.3h34.1c4.9,0,8.8-3.9,8.8-8.8V84H45.7z"/>
	<rect x="159.3" y="83.9" class="st1" width="14.4" height="65"/>
	<path class="st1" d="M137.6,148.4c-1,0.7-2.1,1-3.1,1.2c-1.1,0.1-1.9,0.2-2.4,0.2c-1.4,0-3-0.3-4.5-0.8c-1.6-0.5-3-1.7-4.3-3.6
		l-29.7-43.8c-0.2-0.4-0.6-0.5-1-0.5c-0.5,0-0.7,0.2-0.8,0.5c-0.2,0.3-0.2,0.7-0.2,1.3l0.1,46.3H77.8V92.5c0-0.9,0.1-1.9,0.3-3
		c0.2-1,0.7-2,1.3-3c0.7-0.9,1.6-1.7,2.8-2.4c1.2-0.7,3-1,5-1c2.4,0,4.3,0.5,5.6,1.3c1.3,0.9,2.6,2.2,3.7,3.9l28.6,41.9
		c0.5,0.8,0.9,1.2,1.1,1.4s0.4,0.3,0.6,0.3c0.5,0,0.7-0.3,0.7-0.5c0-0.3,0-0.7,0-1.2V84l0,0h14v55.9c0,2.4-0.5,4.3-1.2,5.6
		C139.6,146.8,138.7,147.8,137.6,148.4z"/>
	<path class="st1" d="M319.9,89c-1.4-1.6-3.4-2.8-5.8-3.7c-2.4-0.9-5-1.4-7.7-1.4h-36.9V95h32.1c1.1,0,2.4,0.1,3.6,0.5
		c1.2,0.3,2.4,1.1,3.3,2.4c0.8,1,1.3,2,1.5,3.1c0.2,1,0.3,2.1,0.3,3.1v4.5H282c-1.7,0-3.6,0.1-5.7,0.5c-2.1,0.4-4.2,1.5-6.2,3.3
		c-2.4,2.1-4,4.6-4.6,7.3c-0.6,2.8-0.9,5.6-0.9,8.5c0,1.2,0.1,2.6,0.1,4.2c0.1,1.6,0.3,3.1,0.7,4.8c0.3,1.6,0.9,3.2,1.7,4.7
		s1.8,2.9,3.1,4c1.9,1.6,3.9,2.6,6,2.8c2.1,0.3,4.1,0.4,5.8,0.4h31.1c1.6,0,3.1-0.2,4.8-0.5c1.6-0.3,3-1,4.2-2.2s1.9-2.6,2.2-4.2
		c0.3-1.6,0.5-3,0.5-4.2v-33.8c0-3.7-0.5-6.8-1.4-9.4C322.5,92.3,321.3,90.4,319.9,89z M310.3,134.5c0,0.5-0.1,1-0.1,1.4
		s-0.3,0.9-0.9,1.3c-0.5,0.4-1,0.6-1.6,0.7c-0.6,0.1-1.1,0.1-1.5,0.1h-20c-0.9,0-1.8-0.2-2.6-0.6c-0.9-0.5-1.6-0.9-2-1.4
		c-0.9-0.9-1.4-2.1-1.6-3.5c-0.2-1.4-0.3-2.7-0.3-3.7c0-2.4,0.2-4.1,0.6-5c0.4-1,0.7-1.6,1-2c0.8-1,1.8-1.7,2.9-1.9
		c1.1-0.2,2-0.3,2.4-0.3h23.9v14.9H310.3z"/>
	<path class="st1" d="M245.5,94.9c-0.9-2.6-2-4.6-3.4-6c-1.4-1.6-3.4-2.8-5.8-3.7c-2.4-0.9-5-1.4-7.7-1.4h-36.9l0,0V149h43.6
		c1.6,0,3.1-0.2,4.8-0.5c1.6-0.3,3-1,4.2-2.2s1.9-2.6,2.2-4.2c0.3-1.6,0.5-3,0.5-4.2v-33.8C246.9,100.7,246.5,97.5,245.5,94.9z
		 M206.1,138V95.1h17.7c1.1,0,2.4,0.1,3.6,0.5c1.2,0.3,2.4,1.1,3.3,2.4c0.8,1,1.3,2,1.5,3.1c0.2,1,0.3,2.1,0.3,3.1v30.4
		c0,0.5-0.1,1-0.1,1.4c-0.1,0.5-0.3,0.9-0.9,1.3c-0.5,0.4-1,0.6-1.6,0.7c-0.6,0.1-1.1,0.1-1.5,0.1L206.1,138L206.1,138z"/>
	<polygon class="st1" points="337,95 361.5,95 361.5,149 375.8,149 375.8,95 400.2,95 400.2,83.9 337,83.9 	"/>
	<path class="st1" d="M467.9,94.9c-0.9-2.6-2-4.6-3.4-6c-1.4-1.6-3.4-2.8-5.8-3.7c-2.4-0.9-5-1.4-7.7-1.4h-37v11.1h32.1
		c1.1,0,2.4,0.1,3.6,0.5c1.2,0.3,2.4,1.1,3.3,2.4c0.8,1,1.3,2,1.5,3.1c0.2,1,0.3,2.1,0.3,3.1v4.5h-28.3c-1.7,0-3.6,0.1-5.7,0.5
		c-2.1,0.4-4.2,1.5-6.2,3.3c-2.4,2.1-4,4.6-4.6,7.3c-0.6,2.8-0.9,5.6-0.9,8.5c0,1.2,0.1,2.6,0.1,4.2c0.1,1.6,0.3,3.1,0.7,4.8
		c0.3,1.6,0.9,3.2,1.7,4.7s1.8,2.9,3.1,4c1.9,1.6,3.9,2.6,6,2.8c2.1,0.3,4.1,0.4,5.8,0.4h31.1c1.6,0,3.1-0.2,4.8-0.5
		c1.6-0.3,3-1,4.2-2.2s1.9-2.6,2.2-4.2c0.3-1.6,0.5-3,0.5-4.2v-33.8C469.3,100.7,468.8,97.5,467.9,94.9z M454.8,134.5
		c0,0.5-0.1,1-0.1,1.4c-0.1,0.5-0.3,0.9-0.9,1.3c-0.5,0.4-1,0.6-1.6,0.7c-0.6,0.1-1.1,0.1-1.5,0.1h-20c-0.9,0-1.8-0.2-2.6-0.6
		c-0.9-0.5-1.5-0.9-2-1.4c-0.9-0.9-1.4-2.1-1.6-3.5c-0.2-1.4-0.3-2.7-0.3-3.7c0-2.4,0.2-4.1,0.6-5c0.4-1,0.7-1.6,1-2
		c0.8-1,1.8-1.7,2.9-1.9c1.1-0.2,2-0.3,2.4-0.3H455v14.9H454.8z"/>
	<path class="st1" d="M45.7,83.9V135c0,1.6-1.5,2.8-3,2.8H21.6c-0.9,0-1.8-0.2-2.6-0.6c-0.9-0.5-1.6-0.9-2-1.4
		c-0.9-0.9-1.4-2.1-1.6-3.5s-0.1-2.6-0.1-3.6V83.9h-4.8c-5.6,0-10.2,4.6-10.2,13.2v30.7c0,12.2,2.2,21.3,17.2,21.3h34.1
		c4.9,0,8.8-3.9,8.8-8.8V83.9H45.7z"/>
</g>
</svg>
