<?xml version="1.0" encoding="utf-8"?>
<!-- Generator: Adobe Illustrator 21.1.0, SVG Export Plug-In . SVG Version: 6.00 Build 0)  -->
<svg version="1.1" id="Layer_2" xmlns="http://www.w3.org/2000/svg" xmlns:xlink="http://www.w3.org/1999/xlink" x="0px" y="0px"
	 viewBox="0 0 547.1 232.9" style="enable-background:new 0 0 547.1 232.9;" xml:space="preserve">
<style type="text/css">
	.st0{fill:#FFFFFF;}
</style>
<g>
	<polygon class="st0" points="149.7,109.9 118.7,109.9 118.7,83.9 104.3,83.9 104.3,149 118.7,149 118.7,121 149.7,121 149.7,148.9 
		164.1,148.9 164.1,83.9 149.7,83.9 	"/>
	<path class="st0" d="M241.1,84.6c-1-0.7-2.1-1-3.1-1.2c-1.1-0.1-1.9-0.2-2.4-0.2c-1.4,0-3,0.3-4.5,0.8c-1.6,0.5-3,1.7-4.3,3.6
		l-29.7,43.8c-0.2,0.4-0.6,0.5-1,0.5c-0.5,0-0.7-0.2-0.8-0.5c-0.2-0.3-0.2-0.7-0.2-1.3l0.1-46.3h-13.9v56.6c0,0.9,0.1,1.9,0.3,3
		c0.2,1,0.7,2,1.3,3c0.7,0.9,1.6,1.7,2.8,2.4c1.2,0.7,3,1,5,1c2.4,0,4.3-0.5,5.6-1.3c1.3-0.9,2.6-2.2,3.7-3.9l28.6-41.9
		c0.5-0.8,0.9-1.2,1.1-1.4s0.4-0.3,0.6-0.3c0.5,0,0.7,0.3,0.7,0.5c0,0.3,0,0.7,0,1.2V149l-0.5,0.1h14.4V93.2c0-2.4-0.5-4.3-1.2-5.6
		C243.1,86.3,242.2,85.3,241.1,84.6z"/>
	<path class="st0" d="M305.1,89.5c-0.7-1.6-1.7-3.1-3.1-4.4c-1.4-1.3-3.9-2-7.3-2c-3.3,0-5.8,0.6-7.2,1.8c-1.5,1.2-2.6,2.8-3.3,4.5
		l-20.3,48.4H258V149h73.3v-11.1h-5.8L305.1,89.5z M277.8,137.9l15.5-40.4c0.1-0.4,0.3-0.8,0.6-1.2c0.3-0.3,0.5-0.5,0.7-0.5
		c0.4,0,0.7,0.2,0.8,0.6c0.1,0.4,0.3,0.8,0.5,1.1l15.6,40.4L277.8,137.9L277.8,137.9z"/>
	<path class="st0" d="M397.7,88.9c-1.4-1.6-3.4-2.8-5.8-3.7c-2.4-0.9-5-1.4-7.7-1.4h-36.9V95h32.1c1.1,0,2.4,0.1,3.6,0.5
		c1.2,0.3,2.4,1.1,3.3,2.4c0.8,1,1.3,2,1.5,3.1c0.2,1,0.3,2.1,0.3,3.1v4.5h-28.3c-1.7,0-3.6,0.1-5.7,0.5c-2.1,0.4-4.2,1.5-6.2,3.3
		c-2.4,2.1-4,4.6-4.6,7.3c-0.6,2.8-0.9,5.6-0.9,8.5c0,1.2,0.1,2.6,0.1,4.2c0.1,1.6,0.3,3.1,0.7,4.8c0.3,1.6,0.9,3.2,1.7,4.7
		s1.8,2.9,3.1,4c1.9,1.6,3.9,2.6,6,2.8c2.1,0.3,4.1,0.4,5.8,0.4h31.1c1.6,0,3.1-0.2,4.8-0.5c1.6-0.3,3-1,4.2-2.2s1.9-2.6,2.2-4.2
		s0.5-3,0.5-4.2v-33.8c0-3.7-0.5-6.8-1.4-9.4C400.2,92.3,399.1,90.3,397.7,88.9z M388,134.4c0,0.5-0.1,1-0.1,1.4s-0.3,0.9-0.9,1.3
		c-0.5,0.4-1,0.6-1.6,0.7s-1.1,0.1-1.5,0.1h-20c-0.9,0-1.8-0.2-2.6-0.6c-0.9-0.5-1.6-0.9-2-1.4c-0.9-0.9-1.4-2.1-1.6-3.5
		c-0.2-1.4-0.3-2.7-0.3-3.7c0-2.4,0.2-4.1,0.6-5c0.4-1,0.7-1.6,1-2c0.8-1,1.8-1.7,2.9-1.9c1.1-0.2,2-0.3,2.4-0.3h23.9v14.9H388z"/>
	<polygon class="st0" points="414.8,95 439.2,95 439.2,149 453.5,149 453.5,95 478,95 478,83.9 414.8,83.9 	"/>
	<path class="st0" d="M545.6,94.9c-0.9-2.6-2-4.6-3.4-6c-1.4-1.6-3.4-2.8-5.8-3.7c-2.4-0.9-5-1.4-7.7-1.4h-37V95h32.1
		c1.1,0,2.4,0.1,3.6,0.5c1.2,0.3,2.4,1.1,3.3,2.4c0.8,1,1.3,2,1.5,3.1c0.2,1,0.3,2.1,0.3,3.1v4.5h-28.3c-1.7,0-3.6,0.1-5.7,0.5
		c-2.1,0.4-4.2,1.5-6.2,3.3c-2.4,2.1-4,4.6-4.6,7.3c-0.6,2.8-0.9,5.6-0.9,8.5c0,1.2,0.1,2.6,0.1,4.2c0.1,1.6,0.3,3.1,0.7,4.8
		c0.3,1.6,0.9,3.2,1.7,4.7s1.8,2.9,3.1,4c1.9,1.6,3.9,2.6,6,2.8s4.1,0.4,5.8,0.4h31.2c1.6,0,3.1-0.2,4.8-0.5c1.6-0.3,3-1,4.2-2.2
		c1.2-1.2,1.9-2.6,2.2-4.2c0.3-1.6,0.5-3,0.5-4.2v-33.8C547,100.6,546.6,97.5,545.6,94.9z M532.6,134.4c0,0.5-0.1,1-0.1,1.4
		c-0.1,0.5-0.3,0.9-0.9,1.3c-0.5,0.4-1,0.6-1.6,0.7s-1.1,0.1-1.5,0.1h-20c-0.9,0-1.8-0.2-2.6-0.6c-0.9-0.5-1.5-0.9-2-1.4
		c-0.9-0.9-1.4-2.1-1.6-3.5c-0.2-1.4-0.3-2.7-0.3-3.7c0-2.4,0.2-4.1,0.6-5c0.4-1,0.7-1.6,1-2c0.8-1,1.8-1.7,2.9-1.9
		c1.1-0.2,2-0.3,2.4-0.3h23.9v14.9H532.6z"/>
	<path class="st0" d="M84.1,89.9c-1.7-1.6-3.7-2.8-5.8-3.7c-2.2-0.9-4.4-1.6-6.8-2s-4.7-0.7-7.1-0.8s-4.5-0.2-6.5-0.2
		c-2.1,0-4.3,0.1-6.6,0.2s-4.6,0.4-6.8,0.8c-2.2,0.4-4.5,1.1-6.6,2c-2.2,0.9-4.1,2.2-6,3.7c-2.7,2.4-4.7,5.2-5.8,8.5
		c-1.1,3.3-1.8,7.1-2,11.5h-9.7v-26H0v52.4v4.1c0,0.9,0.1,1.9,0.3,3c0.2,1,0.7,2,1.3,3s1.6,1.7,2.8,2.4c1.2,0.7,2.9,1,5,1h4.9V121
		h9.8c-0.2,5.2,0.5,9.5,2,13.1c1.4,3.6,3.4,6.5,5.8,8.6c1.8,1.6,3.8,3,6,3.9s4.4,1.6,6.6,2.1s4.5,0.7,6.8,0.9s4.5,0.2,6.6,0.2
		c2,0,4.1-0.1,6.4-0.2c2.4-0.1,4.7-0.4,7.1-0.9s4.7-1.1,6.8-2.1c2.2-0.9,4.1-2.2,5.8-3.9c2.6-2.6,4.7-6.1,6-10.8
		c1.4-4.7,2.1-10,2.1-16.1c-0.1-6.7-0.9-12.2-2.4-16.4C88.3,95.2,86.4,92,84.1,89.9z M76.9,123.4c-0.3,2-0.6,3.6-1,4.9
		s-0.8,2.4-1.2,3.1c-0.4,0.7-0.8,1.3-1.1,1.7c-1,1.3-2.2,2.4-3.5,3.1s-2.8,1.3-4.1,1.6c-1.4,0.4-2.8,0.6-4.3,0.7
		c-1.4,0.1-2.8,0.1-3.9,0.1c-1.2,0-2.6-0.1-3.9-0.1c-1.4-0.1-2.8-0.3-4.2-0.7c-1.4-0.4-2.8-0.9-4.1-1.6c-1.3-0.7-2.5-1.8-3.5-3.1
		c-1.6-2.1-2.7-4.7-3.1-7.7s-0.6-5.8-0.6-8.3c0-2.9,0.1-5.3,0.4-7.3s0.5-3.7,0.9-5.1c0.3-1.4,0.7-2.5,1.1-3.3s0.9-1.4,1.2-2
		c1-1.3,2.2-2.3,3.5-3c1.4-0.7,2.8-1.2,4.3-1.5c1.4-0.3,2.9-0.5,4.3-0.6s2.6-0.1,3.7-0.1c1,0,2.3,0.1,3.7,0.1
		c1.4,0.1,2.8,0.3,4.3,0.6s2.9,0.9,4.3,1.5c1.4,0.7,2.6,1.7,3.5,3c0.3,0.3,0.6,0.9,1,1.6c0.4,0.7,0.8,1.8,1.2,3
		c0.4,1.2,0.7,2.9,1,4.9s0.5,4.4,0.5,7.2C77.4,119,77.2,121.5,76.9,123.4z"/>
</g>
</svg>
