<svg id="Layer_2" data-name="Layer 2" xmlns="http://www.w3.org/2000/svg" viewBox="0 0 232.8 232.9">
  <defs>
    <style>
      .cls-1 {
        fill: #ed1c24;
      }

      .cls-2 {
        fill: #ce181e;
      }

      .cls-3 {
        fill: #c71f3a;
      }

      .cls-4 {
        fill: #ad1a27;
      }
    </style>
  </defs>
  <title>main-menu-logo-sign</title>
  <g>
    <g>
      <polygon class="cls-1" points="53.1 94.1 53.1 138.9 27.4 116.5 53.1 94.1"/>
      <polygon class="cls-1" points="87.5 55.9 55.8 87.6 53.5 53.6 87.5 55.9"/>
      <polygon class="cls-1" points="87.5 177.1 53.5 179.4 55.8 145.4 87.5 177.1"/>
      <polygon class="cls-1" points="138.8 179.7 116.4 205.5 94 179.7 138.8 179.7"/>
      <polygon class="cls-1" points="179.3 179.4 145.3 177.1 177 145.4 179.3 179.4"/>
      <polygon class="cls-1" points="205.4 116.5 179.7 138.9 179.7 94.1 205.4 116.5"/>
      <polygon class="cls-1" points="179.3 53.6 177 87.6 145.3 55.9 179.3 53.6"/>
      <polygon class="cls-1" points="138.8 53.2 94 53.2 116.4 27.5 138.8 53.2"/>
    </g>
    <g>
      <polygon class="cls-2" points="52.9 90.3 25.6 114 9.1 72.1 50.4 54.2 52.9 90.3"/>
      <polygon class="cls-2" points="52.9 142.7 50.4 178.8 9.1 160.8 25.6 119 52.9 142.7"/>
      <polygon class="cls-2" points="113.7 207.1 71.8 223.6 53.8 182.3 89.9 179.8 113.7 207.1"/>
      <polygon class="cls-2" points="178.5 182.3 160.5 223.6 118.6 207.1 142.4 179.8 178.5 182.3"/>
      <polygon class="cls-2" points="223.3 160.8 182 178.8 179.5 142.7 206.8 119 223.3 160.8"/>
      <polygon class="cls-2" points="223.7 71.9 206.8 114 179.5 90.3 182 54.2 223.7 71.9"/>
      <polygon class="cls-2" points="178.5 50.7 142.4 53.2 118.6 25.9 160.5 9.4 178.5 50.7"/>
      <polygon class="cls-2" points="113.7 25.9 89.9 53.2 53.8 50.7 71.8 9.4 113.7 25.9"/>
    </g>
    <g>
      <path class="cls-3" d="M49.4,51.5l-39.1,17c.7-1.6,1.4-3.1,2.2-4.6A119.33,119.33,0,0,1,33,35.1Z"/>
      <path class="cls-3" d="M23.1,117.9,7.2,158.2A125.57,125.57,0,0,1,.5,127.8c-.3-3.3-.5-6.6-.5-9.8H23.1Z"/>
      <path class="cls-3" d="M157.6,225.5a115.08,115.08,0,0,1-39.7,7.4V209.8Z"/>
      <path class="cls-3" d="M222.5,164.4c-.7,1.6-1.4,3.1-2.2,4.6a119.33,119.33,0,0,1-20.5,28.8l-16.4-16.4Z"/>
      <path class="cls-3" d="M232.8,115H209.7l16-39.8a125,125,0,0,1,6.5,29.9A84.74,84.74,0,0,1,232.8,115Z"/>
      <path class="cls-3" d="M114.9,0V23.1L75.1,7.4A121,121,0,0,1,114.9,0Z"/>
      <path class="cls-3" d="M68.5,222.6c-1.6-.7-3.1-1.4-4.6-2.2a114.82,114.82,0,0,1-28.8-20.5l16.4-16.4Z"/>
      <path class="cls-3" d="M181.4,49.5l-17-39.1c1.6.7,3.1,1.4,4.6,2.2a119.33,119.33,0,0,1,28.8,20.5Z"/>
    </g>
    <g>
      <path class="cls-4" d="M23.1,115H0A116.51,116.51,0,0,1,7.5,75.3Z"/>
      <path class="cls-4" d="M114.9,209.8v23.1a126.58,126.58,0,0,1-40.3-7.3Z"/>
      <path class="cls-4" d="M197.7,199.9a117.19,117.19,0,0,1-33.4,22.8l17.1-39.2Z"/>
      <path class="cls-4" d="M33,197.8a117.19,117.19,0,0,1-22.8-33.4l39.2,17.1Z"/>
      <path class="cls-4" d="M232.8,117.9a117,117,0,0,1-7.5,39.7l-15.6-39.7Z"/>
      <path class="cls-4" d="M158.1,7.3,117.9,23.2V0A128.8,128.8,0,0,1,158.1,7.3Z"/>
      <path class="cls-4" d="M68.5,10.2l-17,39.2L35,33.1A116,116,0,0,1,68.5,10.2Z"/>
      <path class="cls-4" d="M222.7,68.6l-39.2-17,16.4-16.4A115.82,115.82,0,0,1,222.7,68.6Z"/>
    </g>
  </g>
</svg>
